<?xml version="1.0" encoding="UTF-8" standalone="no"?>
<svg
   width="24"
   height="24"
   viewBox="0 0 24 24"
   fill="none"
   stroke="#ffffff"
   stroke-width="2"
   stroke-linecap="round"
   stroke-linejoin="round"
   class="lucide lucide-bus"
   version="1.1"
   id="svg5"
   sodipodi:docname="bus-white.svg"
   inkscape:version="1.4 (e7c3feb100, 2024-10-09)"
   inkscape:export-filename="static/bus-up-white.png"
   inkscape:export-xdpi="96"
   inkscape:export-ydpi="96"
   xmlns:inkscape="http://www.inkscape.org/namespaces/inkscape"
   xmlns:sodipodi="http://sodipodi.sourceforge.net/DTD/sodipodi-0.dtd"
   xmlns="http://www.w3.org/2000/svg"
   xmlns:svg="http://www.w3.org/2000/svg">
  <defs
     id="defs5" />
  <sodipodi:namedview
     id="namedview5"
     pagecolor="#ffffff"
     bordercolor="#000000"
     borderopacity="0.25"
     inkscape:showpageshadow="2"
     inkscape:pageopacity="0.0"
     inkscape:pagecheckerboard="0"
     inkscape:deskcolor="#d1d1d1"
     inkscape:zoom="34.375"
     inkscape:cx="12.014545"
     inkscape:cy="12"
     inkscape:window-width="1920"
     inkscape:window-height="1011"
     inkscape:window-x="0"
     inkscape:window-y="0"
     inkscape:window-maximized="1"
     inkscape:current-layer="svg5" />
  <path
     d="m 5,15.690909 h 6"
     id="path1" />
  <path
     d="m 5,8.6909091 h 6"
     id="path2" />
  <path
     d="M 11,21.690909 V 2.0909091"
     id="path3" />
  <path
     d="m 17,5.6909091 v -3 c 0,0 -1.7,-0.5 -2.8,-0.8 -0.4,-0.1 -0.8,-0.2 -1.2,-0.2 -0.4,0 -0.8,0.1 -1.2,0.2 l -5,1.4 c -1,0.3 -1.8,1.3 -1.8,2.4 V 19.690909 a 2,2 0 0 0 2,2 h 10 v -3"
     id="path4" />
  <circle
     cx="-16.690908"
     cy="17"
     r="2"
     id="circle4"
     transform="rotate(-90)" />
  <path
     d="M 17,14.690909 V 9.6909091"
     id="path5" />
  <circle
     cx="-7.6909089"
     cy="17"
     r="2"
     id="circle5"
     transform="rotate(-90)" />
</svg>
