<?xml version="1.0" encoding="UTF-8" standalone="no"?>
<svg
   width="24"
   height="24"
   viewBox="0 0 24 24"
   fill="none"
   stroke="currentColor"
   stroke-width="2"
   stroke-linecap="round"
   stroke-linejoin="round"
   class="lucide lucide-bus"
   version="1.1"
   id="svg5"
   sodipodi:docname="bus.svg"
   inkscape:version="1.4 (e7c3feb100, 2024-10-09)"
   inkscape:export-filename="static/bus-up.png"
   inkscape:export-xdpi="96"
   inkscape:export-ydpi="96"
   xmlns:inkscape="http://www.inkscape.org/namespaces/inkscape"
   xmlns:sodipodi="http://sodipodi.sourceforge.net/DTD/sodipodi-0.dtd"
   xmlns="http://www.w3.org/2000/svg"
   xmlns:svg="http://www.w3.org/2000/svg">
  <defs
     id="defs5" />
  <sodipodi:namedview
     id="namedview5"
     pagecolor="#ffffff"
     bordercolor="#000000"
     borderopacity="0.25"
     inkscape:showpageshadow="2"
     inkscape:pageopacity="0.0"
     inkscape:pagecheckerboard="0"
     inkscape:deskcolor="#d1d1d1"
     inkscape:zoom="34.375"
     inkscape:cx="11.985455"
     inkscape:cy="12"
     inkscape:window-width="1920"
     inkscape:window-height="1011"
     inkscape:window-x="0"
     inkscape:window-y="0"
     inkscape:window-maximized="1"
     inkscape:current-layer="svg5" />
  <path
     d="m 5.0000004,15.907346 c 2,0 4,0 5.9999996,0"
     id="path1" />
  <path
     d="m 5.0000004,8.9073451 c 2,0 4,0 5.9999996,0"
     id="path2" />
  <path
     d="M 11,21.907346 C 11,15.374012 11,8.8406781 11,2.3073451"
     id="path3" />
  <path
     d="m 17.000001,5.9073451 c 0,-1 0,-2 0,-3 -1.330079,-0.336579 -2.625852,-0.880036 -4.000001,-1 -1.291326,0.119829 -2.513148,0.607871 -3.7671546,0.918803 -0.987539,0.313001 -2.029724,0.482638 -2.970296,0.91982 -0.958725,0.535473 -1.359967,1.657151 -1.262549,2.705436 0,4.4853139 0,8.9706279 0,13.4559419 -0.04887,1.562877 1.532102,2.124401 2.816089,2 3.0613026,0 6.1226066,0 9.1839116,0 0,-1 0,-2 0,-3"
     id="path4" />
  <circle
     cx="-16.907345"
     cy="17.000002"
     r="2"
     id="circle4"
     transform="rotate(-90)" />
  <path
     d="m 17.000001,14.907345 c 0,-1.666667 0,-3.333333 0,-4.9999996"
     id="path5" />
  <circle
     cx="-7.9073448"
     cy="17.000002"
     r="2"
     id="circle5"
     transform="rotate(-90)" />
</svg>
